<svg width="94" height="94" viewBox="0 0 94 94" fill="none" xmlns="http://www.w3.org/2000/svg">
<g clip-path="url(#clip0_64_920)">
<path d="M86.6865 47.2946C86.6865 69.346 68.8541 87.1967 46.8881 87.1967C24.9222 87.1967 7.08978 69.346 7.08978 47.2946C7.08978 25.2433 24.9222 7.39259 46.8881 7.39259C68.8541 7.39259 86.6865 25.2433 86.6865 47.2946Z" stroke="#0A2640" stroke-width="13.3928"/>
<mask id="mask0_64_920" style="mask-type:alpha" maskUnits="userSpaceOnUse" x="-28" y="-17" width="74" height="122">
<path d="M45.405 42.9976L27.2687 -16.1593L-27.6346 53.5732L1.54823 104.468L45.405 42.9976Z" fill="#C4C4C4"/>
</mask>
<g mask="url(#mask0_64_920)">
<path d="M86.6874 47.294C86.6874 69.3454 68.855 87.196 46.889 87.196C24.9231 87.196 7.0907 69.3454 7.0907 47.294C7.0907 25.2427 24.9231 7.39198 46.889 7.39198C68.855 7.39198 86.6874 25.2427 86.6874 47.294Z" stroke="#0DBBFC" stroke-width="13.3928"/>
</g>
<mask id="mask1_64_920" style="mask-type:alpha" maskUnits="userSpaceOnUse" x="21" y="-22" width="91" height="85">
<path d="M51.5436 48.1817L111.54 62.8725L79.8347 -20.0867L21.2718 -21.0402L51.5436 48.1817Z" fill="#C4C4C4"/>
</mask>
<g mask="url(#mask1_64_920)">
<path d="M26.4887 81.5346C7.59652 70.2493 1.3963 45.7627 12.6426 26.8415C23.8889 7.92039 48.3215 1.73232 67.2137 13.0176C86.1059 24.303 92.3061 48.7896 81.0598 67.7108C69.8135 86.6319 45.3809 92.82 26.4887 81.5346Z" stroke="#69E6A6" stroke-width="13.3928"/>
</g>
</g>
<defs>
<clipPath id="clip0_64_920">
<rect width="93.0378" height="93.0378" fill="white" transform="translate(0.305176 0.772705)"/>
</clipPath>
</defs>
</svg>
